<svg xmlns="http://www.w3.org/2000/svg" xmlns:xlink="http://www.w3.org/1999/xlink" version="1.1" id="Layer_1" x="0px" y="0px" width="100px" height="100px" viewBox="0 0 100 100" enable-background="new 0 0 100 100" xml:space="preserve">
<path fill="#F15A29" d="M44.535,93.705c-22.34,0-29.483-18.708-25.239-31.78c5.279-16.26,1.208-27.743,1.208-27.743  c8.083,0,7.239,10.639,13.267,12.491c0,0,0-20.989,16.376-28.946c0,0-2.263,10.098,1.67,15.173  c3.932,5.074,2.543,8.853,2.992,12.977c0,0,7.183-4.643,6.51-11.694c0,0,7.369,9.379,10.065,16.13  C78.403,67.891,78.403,93.705,44.535,93.705z"/>
<path d="M44.535,94.705c-12.53,0-19.234-5.604-22.651-10.307c-4.663-6.416-6.019-15.146-3.54-22.782  c5.1-15.708,1.255-26.989,1.216-27.102c-0.108-0.306-0.061-0.646,0.127-0.91s0.492-0.423,0.816-0.423  c5.119,0,7.088,3.774,8.827,7.104c1.021,1.958,1.998,3.829,3.518,4.849c0.39-5.092,2.743-21.447,16.861-28.308  c0.345-0.168,0.756-0.123,1.057,0.115s0.439,0.628,0.356,1.002c-0.021,0.097-2.111,9.702,1.484,14.343  c3.134,4.044,3.115,7.452,3.098,10.459c-0.002,0.394-0.004,0.777,0,1.158c1.923-1.694,5.043-5.174,4.618-9.628  c-0.042-0.441,0.212-0.858,0.624-1.023c0.414-0.164,0.884-0.037,1.158,0.311c0.305,0.388,7.49,9.57,10.208,16.377  c5.173,12.956,5.007,25.495-0.446,33.544C66.823,90.93,57.627,94.705,44.535,94.705z M21.873,35.311  c0.923,3.636,2.672,13.688-1.625,26.923c-2.285,7.039-1.038,15.081,3.255,20.989c3.144,4.326,9.345,9.482,21.033,9.482  c12.388,0,21.026-3.479,25.676-10.343c5.08-7.498,5.171-19.341,0.244-31.68c-1.833-4.59-5.942-10.511-8.256-13.669  c-1.034,5.875-6.576,9.526-6.847,9.702c-0.292,0.189-0.66,0.212-0.973,0.063c-0.313-0.149-0.527-0.45-0.564-0.795  c-0.122-1.115-0.115-2.2-0.109-3.249c0.016-2.944,0.032-5.725-2.679-9.224c-3.084-3.98-2.675-10.586-2.213-13.935  c-13.854,8.194-14.042,26.9-14.042,27.097c0,0.316-0.151,0.615-0.406,0.804c-0.255,0.188-0.584,0.244-0.888,0.151  c-3.062-0.941-4.515-3.726-5.92-6.417C26.082,38.385,24.782,35.896,21.873,35.311z"/>
<path d="M43.186,67.01c-2.82-5.369-13.155-8.073-13.616-8.191c-0.54-0.142-1.08,0.186-1.217,0.721s0.186,1.08,0.721,1.217  c1.955,0.5,6.059,1.9,9.104,3.938c-2.377,0.322-4.208,2.202-4.208,4.496c0,2.52,2.203,4.562,4.92,4.562  c2.718,0,4.92-2.043,4.92-4.562C43.809,68.396,43.57,67.66,43.186,67.01z"/>
<path d="M64.868,59.539c-0.137-0.535-0.679-0.86-1.217-0.721c-0.46,0.118-10.782,2.818-13.61,8.181  c-0.389,0.652-0.629,1.392-0.629,2.19c0,2.52,2.203,4.562,4.92,4.562c2.718,0,4.92-2.043,4.92-4.562  c0-2.293-1.829-4.172-4.205-4.496c3.043-2.035,7.146-3.436,9.1-3.938C64.683,60.618,65.005,60.074,64.868,59.539z"/>
<path d="M47.059,81.858c2.238,0.022,7.699,3.075,9.258,2.422c1.415-0.593,1.006-1.507,0.521-2.075  c-1.487-1.747-5.346-4.893-9.779-4.893c-4.432,0-8.291,3.146-9.777,4.893c-0.484,0.568-0.894,1.482,0.521,2.075  C39.36,84.934,44.821,81.881,47.059,81.858"/>
<path fill="#F15A29" d="M25.541,14.932c0,0-3.895,8.432-2.324,11.573c1.571,3.142,5.61,0.727,4.937-1.881  C27.48,22.017,25.092,16.503,25.541,14.932z"/>
<path d="M25.376,28.993C25.376,28.993,25.376,28.993,25.376,28.993c-1.292,0-2.406-0.744-3.055-2.041  c-1.736-3.472,1.892-11.532,2.311-12.439c0.219-0.476,0.767-0.702,1.255-0.519c0.49,0.182,0.757,0.71,0.614,1.212  c-0.216,0.757,0.892,3.954,1.553,5.863c0.431,1.244,0.837,2.418,1.066,3.305c0.268,1.036,0.02,2.147-0.679,3.05  C27.693,28.392,26.518,28.993,25.376,28.993z M25.138,18.626c-0.99,2.851-1.72,6.046-1.027,7.432  c0.311,0.621,0.736,0.936,1.266,0.936l0,0c0.528,0,1.111-0.312,1.485-0.794c0.187-0.241,0.476-0.732,0.323-1.325  c-0.208-0.808-0.603-1.945-1.02-3.149C25.765,20.568,25.414,19.536,25.138,18.626z"/>
<path fill="#F15A29" d="M72.771,22.352c0,0-4.89,5.108-4.352,9.062c0.537,3.952,2.427,3.279,2.155,6.646c0,0,4.89-3.59,3.992-7.854  S72.323,24.596,72.771,22.352z"/>
<path d="M70.575,39.059c-0.167,0-0.335-0.042-0.487-0.127c-0.342-0.19-0.541-0.563-0.509-0.953c0.113-1.405-0.182-1.84-0.671-2.559  c-0.53-0.779-1.189-1.749-1.478-3.872c-0.596-4.381,4.407-9.665,4.62-9.888c0.307-0.321,0.79-0.402,1.185-0.195  c0.395,0.205,0.606,0.646,0.519,1.083c-0.209,1.049,0.086,1.886,0.577,3.271c0.372,1.051,0.834,2.357,1.217,4.18  c1.019,4.839-4.158,8.703-4.379,8.865C70.992,38.993,70.784,39.059,70.575,39.059z M71.934,24.933  c-1.34,1.825-2.791,4.378-2.523,6.346c0.225,1.657,0.696,2.349,1.15,3.017c0.322,0.473,0.649,0.955,0.849,1.648  c1.196-1.276,2.641-3.341,2.179-5.532c-0.356-1.692-0.794-2.93-1.146-3.925C72.249,25.938,72.07,25.431,71.934,24.933z"/>
<path fill="#F15A29" d="M54.184,3.705c0,0,2.557,6.83,0.917,9.628c-2.023,3.451,6.423,6.189,6.418-0.458  C61.515,7.826,57.851,5.769,54.184,3.705z"/>
<path d="M58.161,17.938C58.16,17.938,58.16,17.938,58.161,17.938c-1.667,0-3.265-0.838-3.979-2.084  c-0.547-0.956-0.527-2.03,0.056-3.026c1.017-1.735-0.068-6.302-0.991-8.771c-0.147-0.394-0.033-0.837,0.286-1.11  c0.319-0.272,0.776-0.318,1.141-0.111c3.68,2.07,7.84,4.411,7.845,10.04c0.001,1.644-0.447,2.937-1.333,3.843  C60.418,17.504,59.343,17.938,58.161,17.938z M55.91,5.865c0.642,2.412,1.246,5.938,0.053,7.974  c-0.218,0.371-0.232,0.695-0.046,1.021c0.352,0.615,1.316,1.078,2.243,1.078c0,0,0,0,0,0c0.452,0,1.096-0.106,1.595-0.617  c0.5-0.513,0.764-1.358,0.763-2.444C60.516,9.35,58.542,7.501,55.91,5.865z"/>
</svg>