<svg xmlns="http://www.w3.org/2000/svg" xmlns:xlink="http://www.w3.org/1999/xlink" version="1.1" id="Layer_1" x="0px" y="0px" width="100px" height="100px" viewBox="0 0 100 100" enable-background="new 0 0 100 100" xml:space="preserve">
<path fill="#000000" d="M47.556,18.807c-0.348-0.226-0.8-0.191-1.111,0.076c-0.313,0.266-0.416,0.705-0.255,1.084l0.654,1.515  c3.682,8.52,6.228,14.407,0.597,22.456c0.126-6.87-2.792-12.336-8.705-16.28c-0.326-0.216-0.754-0.207-1.073,0.022  c-0.316,0.232-0.456,0.637-0.348,1.016c1.342,4.703-0.628,8.077-3.122,12.351c-2.563,4.395-5.753,9.862-5.755,18.325l0,0  c0,0,0,0,0,0.002v0.002c0,0,0,0,0,0.002c0.004,11.878,9.663,21.542,21.539,21.555c0.007,0.002,0.015,0.006,0.024,0.006  c11.889,0,21.562-9.674,21.562-21.562C71.562,43.064,63.037,28.655,47.556,18.807z M50.015,79.062c-0.005,0-0.009-0.004-0.015-0.004  c-10.856,0-19.686-8.829-19.688-19.686c0-7.956,2.922-12.964,5.5-17.382c2.207-3.779,4.158-7.127,3.768-11.373  c4.843,4.022,6.722,9.356,5.741,16.236c-0.059,0.411,0.161,0.814,0.542,0.985c0.382,0.176,0.828,0.072,1.099-0.244  c8.346-9.737,6.039-16.514,2.212-25.444c13.257,9.406,20.513,22.521,20.513,37.224C69.688,70.226,60.864,79.053,50.015,79.062z"/>
<ellipse fill="#000000" cx="40.625" cy="56.562" rx="1.875" ry="2.812"/>
<ellipse fill="#000000" cx="59.375" cy="56.562" rx="1.875" ry="2.812"/>
<path fill="#000000" d="M59.375,61.25h-18.75c-0.586,0-1.137,0.274-1.492,0.74c-0.354,0.467-0.471,1.072-0.313,1.637  c0.079,0.285,2.049,6.998,11.181,6.998c9.133,0,11.102-6.713,11.182-6.998c0.156-0.564,0.041-1.17-0.315-1.637  C60.514,61.524,59.961,61.25,59.375,61.25z"/>
</svg>